<svg
  width="599"
  height="291"
  viewBox="0 0 599 291"
  fill="none"
  xmlns="http://www.w3.org/2000/svg"
>
  <g clip-path="url(#clip0_614_149)">
    <path
      d="M197.262 291C179.188 291 161.141 290.686 143.12 290.059C117.372 289.163 90.746 288.237 65.9985 274.935C48.6866 265.631 33.3541 250.703 21.6593 231.764C13.8426 218.928 8.11108 205.002 4.66602 190.476C-1.76034 164.029 -1.54145 136.473 5.30428 110.125C7.70329 101.091 11.0105 92.3076 15.1784 83.8994C33.2258 47.6814 66.1428 23.3692 105.49 17.1973C105.815 17.1564 106.143 17.1496 106.47 17.177C106.647 17.1862 106.823 17.196 107.003 17.1887L107.234 17.1174C107.828 16.9175 108.437 16.7659 109.057 16.6641C169.74 7.90922 233.891 25.6235 294.569 67.8904C341.486 100.576 403.664 118.176 484.656 121.697L485.806 121.756C508.352 123.011 530.161 132.019 548.878 147.808C567.352 163.391 581.222 184.182 588.99 207.934C589.945 210.83 590.821 213.844 591.592 216.893C592.31 219.726 592.26 222.691 591.445 225.5C590.63 228.309 589.079 230.865 586.943 232.921V232.926L586.741 233.127C586.256 233.595 585.745 234.044 585.222 234.462L584.608 234.952C579.432 239.084 575.344 242.348 570.451 244.883C567.188 246.563 563.718 247.833 560.123 248.662C540.387 253.326 520.343 257.649 500.551 261.513C462.113 269.024 422.661 275.22 383.293 279.928C321.575 287.303 259.448 291.001 197.262 291ZM106.009 18.4597C105.889 18.4586 105.768 18.4666 105.648 18.4835C66.6692 24.5978 34.0637 48.6713 16.1953 84.5308C12.0685 92.8556 8.79406 101.552 6.41891 110.497C-0.364439 136.611 -0.580605 163.922 5.78859 190.134C9.19992 204.521 14.8759 218.314 22.6171 231.028C34.1975 249.781 49.3731 264.559 66.5035 273.765C91.0289 286.947 117.529 287.87 143.157 288.761C223.311 291.536 303.567 288.151 383.169 278.638C422.512 273.932 461.937 267.74 500.35 260.234C520.13 256.373 540.159 252.053 559.882 247.392C563.39 246.583 566.777 245.344 569.961 243.706C574.756 241.222 578.805 237.989 583.931 233.896L584.545 233.406C584.994 233.047 585.435 232.663 585.857 232.263L585.978 232.14C590.191 228.025 591.829 222.596 590.472 217.246V217.245C589.709 214.229 588.843 211.247 587.898 208.381C572.029 159.86 530.979 125.57 485.75 123.053L484.607 122.995C447.61 121.386 415.236 116.929 385.637 109.369C350.304 100.344 319.457 86.7591 293.953 68.9916C233.506 26.8866 169.623 9.23825 109.205 17.9516C108.641 18.046 108.085 18.1855 107.545 18.3687L107.127 18.4819C106.89 18.4922 106.653 18.4894 106.416 18.4737C106.277 18.4667 106.141 18.4597 106.009 18.4597Z"
      fill="#F0F0F0"
    />
    <path
      d="M187.103 94.8113C185.43 93.2556 183.719 84.5798 181.582 83.699C183.179 87.1191 182.02 88.0246 182.011 91.778C182.031 93.9094 181.775 96.0347 181.247 98.1038H145.06V70.7347C145.059 68.2755 145.559 65.8404 146.53 63.5684C147.501 61.2964 148.925 59.232 150.719 57.493C152.513 55.7541 154.644 54.3748 156.988 53.4337C159.332 52.4927 161.845 52.0084 164.383 52.0084C165.351 52.0267 166.314 52.1633 167.247 52.4148C170.357 53.2286 173.192 54.8208 175.467 57.0316C177.742 59.2424 179.377 61.9941 180.209 65.0107C182.967 74.7826 187.355 91.0488 187.103 94.8113Z"
      fill="#2F2E41"
    />
    <path
      d="M147.182 128.48L147.2 107.148L134.26 108.268L138.827 121.723L136.69 155.541C135.653 155.766 134.707 156.279 133.966 157.017C133.225 157.755 132.721 158.685 132.517 159.696C132.312 160.706 132.415 161.752 132.813 162.707C133.212 163.661 133.888 164.483 134.76 165.071C135.631 165.659 136.661 165.989 137.723 166.021C138.785 166.052 139.833 165.783 140.74 165.247C141.647 164.71 142.373 163.93 142.83 163.001C143.287 162.071 143.456 161.033 143.314 160.013L147.182 128.48Z"
      fill="#FFB6B6"
    />
    <path
      d="M172.648 280.924L177.875 280.923L180.362 261.383H172.646L172.648 280.924Z"
      fill="#FFB6B6"
    />
    <path
      d="M170.877 278.425L179.141 277.947V281.378L186.997 286.636C187.385 286.896 187.678 287.269 187.832 287.701C187.985 288.133 187.993 288.601 187.852 289.038C187.712 289.474 187.431 289.855 187.051 290.126C186.672 290.397 186.212 290.543 185.741 290.543H175.902L174.207 287.149L173.544 290.543H169.835L170.877 278.425Z"
      fill="#2F2E41"
    />
    <path
      d="M142.421 280.924L147.649 280.923L150.135 261.383H142.42L142.421 280.924Z"
      fill="#FFB6B6"
    />
    <path
      d="M140.65 278.425L148.914 277.947V281.378L156.771 286.636C157.159 286.896 157.451 287.269 157.605 287.701C157.759 288.133 157.766 288.601 157.626 289.038C157.485 289.474 157.205 289.855 156.825 290.126C156.445 290.397 155.986 290.543 155.514 290.543H145.676L143.98 287.149L143.318 290.543H139.608L140.65 278.425Z"
      fill="#2F2E41"
    />
    <path
      d="M167.993 84.1106L157.163 84.3164L149.519 92.1361L143.39 93.0072C140.618 93.4012 138.069 94.7055 136.17 96.7019C134.271 98.6984 133.136 101.266 132.956 103.976L134.018 109.628H140.388L144.073 130.597C142.64 134.135 142.543 136.929 145.484 138.026L154.615 154.694L181.582 142.964C182.95 140.686 183.388 138.397 181.99 136.172L183.918 104.071H190.4C190.4 98.0677 188.305 93.0064 182.148 92.3383C179.703 92.0819 177.247 91.9457 174.787 91.9303L167.993 84.1106Z"
      fill="#E6E6E6"
    />
    <path
      d="M181.582 142.964C181.582 142.964 155.251 147.492 145.484 138.026C145.484 138.026 144.492 139.657 142.998 142.363C142.568 143.141 141.738 143.668 141.237 144.611C140.781 145.467 139.61 146.52 139.113 147.492C138.714 148.274 139.355 149.295 138.939 150.139C133.937 160.307 128.093 174.65 129.346 184.121C130.154 190.229 131.822 204.44 133.58 219.705C133.717 220.897 132.605 222.429 132.743 223.631C132.873 224.765 134.254 225.568 134.384 226.704C134.47 227.459 133.506 228.228 133.592 228.982C133.687 229.808 134.832 230.619 134.926 231.442C137.334 252.519 139.538 272.196 139.538 272.196H151.854L154.178 227.255L152.279 210.873L156.738 177.742L162.896 209.227L163.688 226.946L170.196 273.019H181.582V228.418L182.431 226.101L181.582 223.129L182.431 219.927L181.582 216.44V142.964Z"
      fill="#2F2E41"
    />
    <path
      d="M171.316 78.0245C169.638 80.1841 167.252 81.7256 164.55 82.3952C161.847 83.0648 158.99 82.8225 156.449 81.7083C153.908 80.5941 151.834 78.6744 150.569 76.2653C149.304 73.8563 148.923 71.1015 149.489 68.4547C150.055 65.8079 151.535 63.4269 153.684 61.7038C155.833 59.9807 158.524 59.0183 161.312 58.975C164.101 58.9318 166.822 59.8103 169.027 61.4658C171.232 63.1214 172.789 65.4553 173.443 68.0832C173.478 68.2258 173.508 68.3676 173.537 68.5148C173.882 70.1619 173.862 71.8613 173.479 73.5006C173.097 75.1399 172.359 76.6818 171.316 78.0245Z"
      fill="#FFB6B6"
    />
    <path
      d="M168.757 71.2367C168.497 69.9702 167.838 68.8128 166.871 67.9236C166.967 69.1374 166.793 70.3569 166.362 71.5002C163.133 71.7772 159.89 71.1547 157.015 69.7057C154.849 68.2817 152.092 68.4052 148.882 69.7057C148.882 68.1924 149.189 66.6938 149.787 65.2955C150.384 63.8973 151.26 62.6269 152.364 61.5567C153.468 60.4866 154.779 59.6378 156.222 59.0587C157.665 58.4796 159.211 58.1817 160.773 58.1819H162.896C166.05 58.1824 169.074 59.3967 171.304 61.5578C173.534 63.7188 174.787 66.6496 174.788 69.7057C172.828 70.3869 170.81 70.8993 168.757 71.2367Z"
      fill="#2F2E41"
    />
    <path
      d="M75.8579 218.113C94.7248 218.113 110.02 203.29 110.02 185.006C110.02 166.722 94.7248 151.9 75.8579 151.9C56.991 151.9 41.6963 166.722 41.6963 185.006C41.6963 203.29 56.991 218.113 75.8579 218.113Z"
      fill="#F0F0F0"
    />
    <path
      d="M293.555 66.2128C312.422 66.2128 327.717 51.3905 327.717 33.1064C327.717 14.8222 312.422 0 293.555 0C274.688 0 259.394 14.8222 259.394 33.1064C259.394 51.3905 274.688 66.2128 293.555 66.2128Z"
      fill="#F0F0F0"
    />
    <path
      d="M564.838 223.306C583.705 223.306 599 208.484 599 190.199C599 171.915 583.705 157.093 564.838 157.093C545.971 157.093 530.677 171.915 530.677 190.199C530.677 208.484 545.971 223.306 564.838 223.306Z"
      fill="#F0F0F0"
    />
    <path
      d="M355.18 36.7168V111.788C355.18 113.347 354.546 114.844 353.414 115.952C352.282 117.06 350.745 117.691 349.136 117.708C349.114 117.71 349.091 117.711 349.069 117.71H340.053C332.839 117.71 325.921 114.933 320.82 109.99C315.719 105.046 312.854 98.3417 312.854 91.3507V36.7168C312.854 35.1461 313.497 33.6397 314.643 32.529C315.79 31.4183 317.344 30.7944 318.965 30.7944H322.618C320.925 35.579 343.896 37.5934 345.157 30.7944H349.069C350.69 30.7944 352.244 31.4184 353.39 32.529C354.536 33.6397 355.18 35.1461 355.18 36.7168Z"
      fill="#0D99FF"
    />
    <path
      d="M328.425 25.1808C328.425 24.975 328.509 24.7778 328.66 24.6323C328.81 24.4868 329.013 24.4049 329.226 24.4047H334.672C334.884 24.4053 335.087 24.4873 335.237 24.6328C335.386 24.7783 335.47 24.9754 335.47 25.1808C335.47 25.3863 335.386 25.5834 335.237 25.7288C335.087 25.8743 334.884 25.9564 334.672 25.957H329.226C329.013 25.9567 328.81 25.8749 328.66 25.7294C328.509 25.5839 328.425 25.3866 328.425 25.1808Z"
      fill="#3F3D56"
    />
    <path
      d="M350.94 127.232H316.5C313.828 127.229 311.266 126.2 309.376 124.368C307.487 122.537 306.424 120.055 306.421 117.465V64.9877C306.232 64.8561 306.078 64.6827 305.972 64.4819C305.866 64.281 305.81 64.0586 305.811 63.833V58.5552C305.81 58.3296 305.866 58.1072 305.972 57.9065C306.078 57.7057 306.232 57.5324 306.421 57.4008V55.9843C306.232 55.8528 306.078 55.6794 305.972 55.4786C305.866 55.2779 305.81 55.0555 305.811 54.8299V49.5518C305.81 49.3262 305.866 49.1038 305.972 48.9031C306.078 48.7023 306.232 48.529 306.421 48.3974V45.8373C306.187 45.7158 305.992 45.535 305.857 45.3144C305.721 45.0937 305.65 44.8415 305.65 44.5846V39.3069C305.65 39.05 305.721 38.7977 305.857 38.577C305.992 38.3563 306.187 38.1755 306.421 38.0539V31.0388C306.424 28.4493 307.487 25.9668 309.376 24.1357C311.266 22.3047 313.828 21.2748 316.5 21.2719H350.94C353.612 21.2748 356.174 22.3048 358.063 24.1358C359.952 25.9668 361.015 28.4494 361.018 31.0388V46.3302C361.2 46.4402 361.349 46.5931 361.453 46.7746C361.557 46.9561 361.611 47.1601 361.611 47.3676V57.4312C361.611 57.6388 361.557 57.8428 361.453 58.0244C361.349 58.2059 361.2 58.3589 361.018 58.469V117.465C361.015 120.055 359.952 122.537 358.063 124.368C356.174 126.199 353.612 127.229 350.94 127.232ZM316.5 22.5702C314.183 22.5727 311.961 23.4657 310.323 25.0534C308.685 26.641 307.763 28.7936 307.761 31.0388V39.1582L307.116 39.1823C307.083 39.1835 307.051 39.197 307.028 39.2202C307.004 39.2434 306.991 39.2744 306.99 39.3069V44.5846C306.991 44.6171 307.004 44.648 307.028 44.6712C307.051 44.6943 307.083 44.7079 307.116 44.7092L307.761 44.733V49.309L307.251 49.4307C307.223 49.4373 307.198 49.4527 307.179 49.4746C307.161 49.4965 307.151 49.5237 307.15 49.5518V54.8299C307.151 54.858 307.161 54.8851 307.179 54.907C307.198 54.9289 307.223 54.9444 307.251 54.951L307.761 55.0727V58.3124L307.251 58.4341C307.223 58.4407 307.198 58.4561 307.179 58.478C307.161 58.4999 307.151 58.5271 307.15 58.5552V63.833C307.151 63.8611 307.161 63.8883 307.179 63.9103C307.198 63.9322 307.223 63.9477 307.251 63.9543L307.761 64.0761V117.465C307.763 119.711 308.685 121.863 310.323 123.451C311.961 125.039 314.183 125.932 316.5 125.934H350.94C353.257 125.931 355.478 125.038 357.116 123.451C358.754 121.863 359.676 119.711 359.678 117.465V57.3574H360.272V47.4418H359.678V31.0388C359.676 28.7936 358.754 26.641 357.116 25.0534C355.478 23.4658 353.257 22.5727 350.94 22.5702L316.5 22.5702Z"
      fill="#3F3D56"
    />
    <path
      d="M337.715 25.957C338.157 25.957 338.516 25.6095 338.516 25.1808C338.516 24.7522 338.157 24.4047 337.715 24.4047C337.273 24.4047 336.914 24.7522 336.914 25.1808C336.914 25.6095 337.273 25.957 337.715 25.957Z"
      fill="#3F3D56"
    />
    <path
      d="M163.493 175.531H73.8779C72.6052 175.527 71.3856 175.036 70.4857 174.164C69.5857 173.292 69.0786 172.11 69.0752 170.877V128.56C69.0785 127.326 69.5854 126.145 70.4852 125.272C71.3851 124.4 72.6046 123.909 73.8772 123.905H163.493C164.765 123.909 165.985 124.4 166.885 125.272C167.785 126.144 168.292 127.326 168.295 128.559V170.876C168.292 172.11 167.785 173.291 166.885 174.164C165.985 175.036 164.766 175.527 163.493 175.531Z"
      fill="white"
    />
    <path
      d="M163.493 175.531H73.8779C72.6052 175.527 71.3856 175.036 70.4857 174.164C69.5857 173.292 69.0786 172.11 69.0752 170.877V128.56C69.0785 127.326 69.5854 126.145 70.4852 125.272C71.3851 124.4 72.6046 123.909 73.8772 123.905H163.493C164.765 123.909 165.985 124.4 166.885 125.272C167.785 126.144 168.292 127.326 168.295 128.559V170.876C168.292 172.11 167.785 173.291 166.885 174.164C165.985 175.036 164.766 175.527 163.493 175.531ZM73.8779 125.204C72.9601 125.206 72.0808 125.561 71.4319 126.19C70.783 126.819 70.4174 127.671 70.4149 128.56V170.876C70.4175 171.766 70.7833 172.618 71.4323 173.247C72.0813 173.876 72.9608 174.23 73.8785 174.232H163.492C164.41 174.23 165.289 173.875 165.938 173.246C166.587 172.617 166.953 171.765 166.956 170.876V128.56C166.953 127.67 166.587 126.818 165.938 126.189C165.289 125.561 164.41 125.206 163.492 125.204L73.8779 125.204Z"
      fill="#3F3D56"
    />
    <path
      d="M123.489 169.277C105.814 169.277 87.3852 169.113 80.509 169.007C79.6044 168.989 78.7428 168.629 78.1083 168.004C77.4739 167.378 77.1168 166.537 77.1133 165.661V130.632C77.1136 130.318 77.2423 130.016 77.4711 129.794C77.7 129.572 78.0104 129.446 78.3344 129.445H159.033C159.357 129.446 159.668 129.57 159.897 129.792C160.127 130.014 160.256 130.314 160.257 130.628V154.395C160.242 158.274 158.659 161.994 155.847 164.755C153.034 167.516 149.218 169.099 145.215 169.164C138.806 169.245 131.218 169.277 123.489 169.277Z"
      fill="#0D99FF"
    />
    <path
      d="M154.243 152.211H81.3255C80.715 152.21 80.1197 152.026 79.6207 151.685C79.1217 151.344 78.743 150.863 78.5363 150.306L70.2831 127.867C70.124 127.434 70.0744 126.971 70.1385 126.516C70.2026 126.061 70.3784 125.627 70.6513 125.251C70.9242 124.876 71.2861 124.569 71.7066 124.357C72.1271 124.145 72.594 124.034 73.068 124.033L164.214 123.91C164.647 123.91 165.075 124.001 165.468 124.178C165.861 124.356 166.209 124.614 166.487 124.936C166.766 125.258 166.968 125.635 167.08 126.04C167.191 126.446 167.21 126.871 167.134 127.284L167.204 127.313L166.943 127.905L166.94 127.911L156.963 150.472C156.736 150.988 156.357 151.429 155.873 151.738C155.39 152.047 154.823 152.212 154.243 152.211ZM164.218 125.208L73.0706 125.331C72.811 125.332 72.5552 125.392 72.3248 125.509C72.0944 125.625 71.8962 125.793 71.7467 125.998C71.5972 126.204 71.5008 126.442 71.4657 126.691C71.4306 126.94 71.4577 127.194 71.5449 127.431L79.7978 149.869C79.9112 150.174 80.1188 150.438 80.3923 150.625C80.6658 150.812 80.9919 150.912 81.3265 150.913H154.243C154.561 150.913 154.871 150.823 155.135 150.654C155.4 150.485 155.607 150.244 155.732 149.961L165.709 127.399C165.815 127.16 165.858 126.899 165.834 126.64C165.81 126.381 165.72 126.132 165.572 125.915C165.425 125.698 165.224 125.519 164.987 125.396C164.751 125.273 164.487 125.208 164.218 125.208Z"
      fill="#3F3D56"
    />
    <path
      d="M118.55 157.096C121.703 157.096 124.259 154.618 124.259 151.562C124.259 148.506 121.703 146.029 118.55 146.029C115.396 146.029 112.84 148.506 112.84 151.562C112.84 154.618 115.396 157.096 118.55 157.096Z"
      fill="white"
    />
    <path
      d="M334.237 109.059C337.39 109.059 339.947 106.582 339.947 103.526C339.947 100.47 337.39 97.9924 334.237 97.9924C331.084 97.9924 328.527 100.47 328.527 103.526C328.527 106.582 331.084 109.059 334.237 109.059Z"
      fill="white"
    />
    <path
      d="M550.189 183.786L534.937 169.193C534.195 168.477 533.314 167.91 532.345 167.525C531.376 167.139 530.338 166.943 529.29 166.947H529.237C528.181 166.95 527.137 167.156 526.164 167.552C525.192 167.949 524.31 168.529 523.57 169.258C520.16 172.603 518.22 177.098 518.159 181.8C518.098 186.502 519.919 191.044 523.242 194.471C523.402 194.64 523.57 194.802 523.737 194.964C524.665 195.858 525.689 196.652 526.792 197.333C529.807 199.222 533.323 200.221 536.913 200.209H537.027C539.491 200.201 541.929 199.72 544.2 198.792C546.47 197.865 548.529 196.511 550.256 194.808C551.753 193.337 552.586 191.35 552.574 189.284C552.561 187.217 551.704 185.24 550.189 183.786ZM549.305 193.893C546.473 196.658 542.745 198.392 538.748 198.803C534.75 199.215 530.729 198.278 527.361 196.152C526.398 195.534 525.498 194.828 524.675 194.042C521.389 190.897 519.526 186.615 519.497 182.139C519.468 177.662 521.276 173.358 524.521 170.173C525.138 169.564 525.874 169.08 526.686 168.749C527.498 168.418 528.369 168.247 529.25 168.245H529.29C530.162 168.242 531.027 168.406 531.833 168.727C532.64 169.047 533.374 169.519 533.993 170.115L549.245 184.714C550.507 185.924 551.223 187.571 551.234 189.291C551.245 191.012 550.552 192.667 549.305 193.893Z"
      fill="#3F3D56"
    />
    <path
      d="M500.145 135.892L484.893 121.293C483.392 119.849 481.361 119.041 479.246 119.047H479.2C478.143 119.051 477.097 119.258 476.124 119.655C475.15 120.053 474.267 120.634 473.526 121.364C470.707 124.139 468.879 127.716 468.31 131.571C467.741 135.426 468.461 139.356 470.364 142.786L470.371 142.792C471.156 144.195 472.132 145.49 473.271 146.642C473.399 146.785 473.546 146.927 473.693 147.07C477.196 150.439 481.934 152.326 486.869 152.315H486.99C489.454 152.305 491.892 151.822 494.163 150.894C496.433 149.966 498.492 148.611 500.219 146.908C500.961 146.18 501.547 145.317 501.945 144.37C502.342 143.422 502.543 142.408 502.537 141.385C502.53 140.362 502.315 139.351 501.905 138.408C501.494 137.465 500.897 136.611 500.145 135.892ZM499.261 145.999C497.658 147.58 495.747 148.837 493.64 149.698C491.533 150.559 489.27 151.008 486.983 151.017H486.869C483.434 151.016 480.077 150.03 477.219 148.184C474.36 146.339 472.129 143.715 470.805 140.644C469.481 137.572 469.124 134.19 469.779 130.922C470.434 127.655 472.07 124.648 474.484 122.279C475.733 121.056 477.431 120.362 479.207 120.352C480.983 120.341 482.691 121.013 483.955 122.221L499.208 136.814C500.469 138.026 501.184 139.674 501.194 141.396C501.204 143.118 500.509 144.773 499.261 145.999Z"
      fill="#3F3D56"
    />
    <path
      d="M551.164 188.374L534.349 172.279C533.246 171.226 531.757 170.64 530.209 170.649C528.661 170.659 527.18 171.263 526.091 172.329C524.729 173.663 523.651 175.244 522.92 176.981C522.188 178.719 521.817 180.579 521.828 182.456C521.839 184.333 522.232 186.189 522.984 187.919C523.735 189.648 524.831 191.218 526.209 192.536C527.587 193.855 529.22 194.898 531.014 195.605C532.807 196.312 534.728 196.669 536.664 196.656C538.601 196.644 540.516 196.261 542.3 195.531C544.084 194.8 545.701 193.736 547.061 192.4L551.164 188.374Z"
      fill="#0D99FF"
    />
    <path
      d="M501.124 140.477L484.309 124.383C483.206 123.33 481.717 122.743 480.169 122.753C478.621 122.762 477.14 123.366 476.051 124.432C474.689 125.766 473.611 127.347 472.88 129.085C472.148 130.823 471.777 132.683 471.788 134.56C471.799 136.436 472.192 138.293 472.943 140.022C473.695 141.752 474.791 143.321 476.169 144.64C477.547 145.959 479.18 147.001 480.974 147.708C482.767 148.415 484.688 148.773 486.624 148.76C488.561 148.747 490.476 148.365 492.26 147.634C494.043 146.904 495.661 145.84 497.021 144.503L501.124 140.477Z"
      fill="#0D99FF"
    />
    <path
      d="M532.687 198.398L532.285 199.424C530.396 198.729 528.565 198.032 526.792 197.333C495.39 184.915 480.399 170.381 470.372 142.792L470.365 142.786C469.889 141.488 469.427 140.159 468.979 138.8L470.037 138.469C470.391 139.776 470.908 141.036 471.577 142.221C472.127 143.734 472.692 145.207 473.272 146.642C482.697 169.927 496.596 183.234 523.242 194.471C524.582 195.036 525.955 195.596 527.361 196.152C528.995 197.183 530.795 197.943 532.687 198.398Z"
      fill="#3F3D56"
    />
    <path
      d="M484.614 151.134L483.672 152.058L518.462 185.357L519.403 184.433L484.614 151.134Z"
      fill="#3F3D56"
    />
    <path
      d="M190.076 123.542L190.093 102.209L177.154 103.33L181.72 116.784L165.144 141.136C164.107 141.362 163.161 141.874 162.42 142.612C161.679 143.35 161.175 144.281 160.971 145.291C160.766 146.301 160.869 147.347 161.267 148.302C161.666 149.256 162.342 150.078 163.214 150.666C164.085 151.255 165.115 151.584 166.177 151.616C167.239 151.647 168.287 151.378 169.194 150.842C170.101 150.305 170.827 149.525 171.284 148.596C171.741 147.666 171.91 146.628 171.768 145.608L190.076 123.542Z"
      fill="#FFB6B6"
    />
  </g>
  <defs>
    <clipPath id="clip0_614_149">
      <rect width="599" height="291" fill="white" />
    </clipPath>
  </defs>
</svg>
